<?xml version="1.0" standalone="no"?>
<!DOCTYPE svg PUBLIC "-//W3C//DTD SVG 20010904//EN"
 "http://www.w3.org/TR/2001/REC-SVG-20010904/DTD/svg10.dtd">
<svg version="1.0" xmlns="http://www.w3.org/2000/svg"
 width="282.000000pt" height="282.000000pt" viewBox="0 0 282.000000 282.000000"
 preserveAspectRatio="xMidYMid meet">
<metadata>
Created by potrace 1.11, written by Peter Selinger 2001-2013
</metadata>
<g transform="translate(0.000000,282.000000) scale(0.100000,-0.100000)"
fill="#000000" stroke="none">
<path d="M1425 2765 c-103 -14 -312 -61 -330 -75 -5 -4 -28 -13 -50 -20 -64
-20 -213 -97 -280 -144 -122 -88 -210 -195 -254 -312 -11 -27 -28 -71 -39 -99
-11 -27 -35 -104 -52 -170 -97 -364 -141 -516 -205 -715 -54 -166 -119 -340
-155 -410 -28 -55 -11 -66 54 -33 94 48 356 132 356 115 -1 -11 -43 -126 -88
-237 -45 -114 -86 -254 -80 -280 7 -40 32 -40 119 2 90 44 252 106 308 118
l34 7 -7 -53 c-9 -68 -58 -258 -84 -327 -35 -91 -7 -115 81 -71 61 32 307 178
342 204 22 16 51 24 110 29 173 16 330 69 412 141 28 25 55 54 58 65 6 20 7
20 37 -1 16 -12 69 -41 116 -66 192 -97 363 -112 507 -43 36 17 65 35 65 41 0
11 -68 144 -131 259 -51 91 -139 260 -139 266 0 2 15 4 33 4 37 0 139 27 282
75 55 18 137 43 183 55 46 13 86 29 89 36 7 18 -63 135 -115 194 l-40 45 23
130 c12 72 26 159 30 195 3 36 16 90 27 120 17 44 21 79 21 180 1 118 -1 129
-31 203 -79 193 -244 356 -472 464 -117 56 -132 62 -240 90 -119 31 -341 39
-495 18z m710 -135 c3 -6 -1 -7 -9 -4 -18 7 -21 14 -7 14 6 0 13 -4 16 -10z
m-565 -91 c61 -9 239 -73 250 -89 3 -4 19 -14 35 -23 17 -8 53 -41 81 -74 53
-60 144 -190 144 -205 0 -5 10 -22 21 -37 12 -16 18 -34 15 -40 -4 -6 -4 -17
0 -23 5 -7 9 -19 10 -28 1 -8 7 -50 14 -94 10 -63 10 -92 0 -145 l-12 -67 -55
-26 c-50 -24 -56 -25 -83 -11 -16 7 -39 16 -50 18 -12 2 -58 18 -103 36 -101
39 -207 70 -218 64 -4 -3 -10 -1 -14 4 -3 5 -13 10 -23 10 -38 1 -60 4 -126
16 -38 7 -84 11 -102 8 -18 -3 -41 -2 -51 2 -10 3 -92 6 -183 5 -91 0 -178 4
-195 9 -16 5 -42 12 -57 15 -19 4 -34 19 -48 46 -11 21 -20 44 -20 49 0 21 88
208 108 229 6 7 12 19 12 27 0 7 4 15 9 17 5 2 31 30 59 62 28 33 74 77 104
98 103 75 295 154 378 157 19 0 64 -4 100 -10z m-840 -82 c0 -2 -10 -12 -22
-23 l-23 -19 19 23 c18 21 26 27 26 19z m-127 -162 c-3 -9 -8 -14 -10 -11 -3
3 -2 9 2 15 9 16 15 13 8 -4z m-166 -452 c-3 -10 -5 -4 -5 12 0 17 2 24 5 18
2 -7 2 -21 0 -30z m338 27 c3 -5 1 -10 -4 -10 -6 0 -11 5 -11 10 0 6 2 10 4
10 3 0 8 -4 11 -10z m-348 -82 c-3 -7 -5 -2 -5 12 0 14 2 19 5 13 2 -7 2 -19
0 -25z m1723 -112 c0 -2 -6 -9 -14 -15 -11 -9 -16 -9 -22 0 -4 7 -3 9 4 5 6
-3 13 -2 17 4 6 10 15 14 15 6z m397 -108 c-3 -8 -6 -5 -6 6 -1 11 2 17 5 13
3 -3 4 -12 1 -19z m-352 -48 c6 -5 15 -7 18 -4 16 16 204 -68 265 -120 67 -55
102 -89 102 -97 0 -5 20 -35 44 -66 47 -62 47 -74 -4 -87 -24 -7 -24 -6 3 9
33 19 33 22 2 60 l-25 30 10 -28 c11 -32 6 -47 -16 -47 -8 0 -14 -4 -14 -10 0
-5 -7 -10 -15 -10 -8 0 -15 -5 -15 -11 0 -6 9 -8 23 -4 17 5 19 4 7 -4 -8 -6
-26 -8 -40 -5 -17 4 -21 3 -12 -4 15 -10 15 -10 -153 -66 -152 -51 -173 -55
-232 -56 -46 0 -53 -3 -53 -20 0 -23 106 -239 155 -315 31 -49 86 -161 84
-174 0 -3 -20 33 -45 81 -24 49 -49 88 -54 88 -5 0 7 -35 26 -77 20 -43 38
-83 41 -90 2 -6 -1 -21 -7 -33 -15 -28 -9 -33 24 -19 15 7 25 18 22 26 -3 7
-1 13 3 13 5 0 11 -6 14 -14 4 -9 -15 -23 -55 -42 -55 -26 -71 -29 -162 -29
-82 0 -113 5 -166 24 -106 39 -193 88 -219 123 -14 18 -43 47 -65 63 -22 17
-51 46 -63 64 -13 19 -23 30 -23 24 0 -11 43 -70 63 -86 14 -12 31 -47 22 -47
-11 0 -74 71 -103 117 -38 59 -76 159 -68 180 3 7 -1 16 -9 19 -20 8 -20 81
-1 120 18 36 33 147 17 124 -7 -9 -11 -10 -11 -3 0 6 4 14 9 17 4 3 23 40 42
83 61 142 110 202 157 194 21 -3 67 30 53 38 -16 10 41 35 129 56 41 9 86 21
100 26 32 11 178 3 195 -11z m151 4 c18 -14 18 -14 -6 -3 -31 14 -36 19 -24
19 6 0 19 -7 30 -16z m-586 -9 c0 -2 -13 -11 -30 -20 -38 -19 -40 -11 -2 9 31
17 32 18 32 11z m770 -110 c14 -19 14 -19 -2 -6 -10 7 -18 18 -18 24 0 6 1 8
3 6 1 -2 9 -13 17 -24z m-1083 -492 c-2 -21 -4 -4 -4 37 0 41 2 58 4 38 2 -21
2 -55 0 -75z m-1266 70 c-12 -20 -14 -14 -5 12 4 9 9 14 11 11 3 -2 0 -13 -6
-23z m-20 -50 c-12 -20 -14 -14 -5 12 4 9 9 14 11 11 3 -2 0 -13 -6 -23z m-17
-73 c-22 -9 -29 -6 -20 9 4 6 14 7 23 4 15 -6 14 -7 -3 -13z m274 -235 c-6
-14 -13 -23 -15 -21 -5 5 15 46 22 46 3 0 -1 -11 -7 -25z m342 -59 c0 -2 -7
-7 -16 -10 -8 -3 -12 -2 -9 4 6 10 25 14 25 6z m858 -41 c-3 -3 -9 2 -12 12
-6 14 -5 15 5 6 7 -7 10 -15 7 -18z m-1253 -95 c3 -5 1 -10 -4 -10 -6 0 -11 5
-11 10 0 6 2 10 4 10 3 0 8 -4 11 -10z m525 -244 c0 -2 -7 -7 -16 -10 -8 -3
-12 -2 -9 4 6 10 25 14 25 6z m-45 -26 c-3 -5 -12 -10 -18 -10 -7 0 -6 4 3 10
19 12 23 12 15 0z m-130 -59 c3 -6 -4 -15 -15 -21 -19 -10 -20 -10 -8 9 15 24
15 24 23 12z"/>
<path d="M1550 2265 c-54 -30 -69 -45 -87 -83 -33 -71 -35 -87 -18 -138 25
-75 45 -101 99 -131 76 -42 81 -43 143 -32 68 13 103 28 103 45 0 6 7 14 15
17 8 4 26 24 40 46 20 33 25 53 25 104 0 58 -4 69 -34 109 -45 59 -92 86 -163
93 -53 5 -63 3 -123 -30z"/>
<path d="M1971 1499 c-58 -11 -68 -22 -11 -12 25 4 79 8 122 8 42 0 71 3 65 7
-16 10 -120 8 -176 -3z"/>
<path d="M1790 1430 c-29 -22 -50 -40 -46 -40 7 0 69 44 101 72 27 23 -8 3
-55 -32z"/>
<path d="M1992 1443 c-23 -15 -44 -33 -46 -40 -7 -18 4 -44 16 -37 6 4 5 9 -2
14 -13 8 23 50 66 77 10 6 17 12 14 12 -4 1 -25 -11 -48 -26z"/>
<path d="M2070 1452 c6 -13 14 -21 18 -18 3 4 -2 14 -12 24 -18 16 -18 16 -6
-6z"/>
<path d="M2310 1467 c0 -3 26 -20 58 -37 31 -18 80 -50 107 -72 l50 -40 -47
44 c-42 38 -168 117 -168 105z"/>
<path d="M1776 1365 c-47 -47 -82 -85 -78 -85 4 0 45 38 92 85 47 47 81 85 78
85 -4 0 -45 -38 -92 -85z"/>
<path d="M1919 1433 c-13 -16 -12 -17 4 -4 9 7 17 15 17 17 0 8 -8 3 -21 -13z"/>
<path d="M2017 1336 c-152 -156 -159 -164 -110 -126 23 17 83 77 133 131 82
88 120 117 120 90 0 -5 8 -12 17 -15 15 -6 15 -4 -2 14 -10 11 -25 19 -34 18
-9 0 -65 -51 -124 -112z"/>
<path d="M2185 1370 c-21 -22 -36 -42 -34 -45 3 -2 23 13 44 35 21 22 36 42
34 45 -3 2 -23 -13 -44 -35z"/>
<path d="M1688 1368 c-13 -13 -17 -18 -8 -12 8 6 24 16 35 22 11 6 15 12 8 12
-7 0 -22 -10 -35 -22z"/>
<path d="M2334 1368 l-19 -23 23 19 c21 18 27 26 19 26 -2 0 -12 -10 -23 -22z"/>
<path d="M2249 1375 c-1 -3 -2 -9 -3 -14 0 -5 -4 -13 -8 -17 -5 -4 -8 -12 -8
-18 1 -13 23 23 26 42 2 11 -5 18 -7 7z"/>
<path d="M1909 1353 c-13 -16 -12 -17 4 -4 9 7 17 15 17 17 0 8 -8 3 -21 -13z"/>
<path d="M2285 1328 c-24 -12 -81 -78 -68 -78 5 0 29 20 53 45 46 47 48 50 15
33z"/>
<path d="M1625 1304 c-9 -14 -14 -28 -12 -31 3 -3 13 9 22 26 19 38 14 41 -10
5z"/>
<path d="M2540 1302 c6 -13 14 -21 18 -18 3 4 -2 14 -12 24 -18 16 -18 16 -6
-6z"/>
<path d="M2104 1288 l-19 -23 23 19 c21 18 27 26 19 26 -2 0 -12 -10 -23 -22z"/>
<path d="M2420 1295 c-16 -20 -11 -24 20 -14 17 5 19 7 7 8 -10 1 -15 6 -12
11 10 15 -1 12 -15 -5z"/>
<path d="M1849 1283 c-13 -16 -12 -17 4 -4 9 7 17 15 17 17 0 8 -8 3 -21 -13z"/>
<path d="M2065 1270 c3 -5 8 -10 11 -10 2 0 4 5 4 10 0 6 -5 10 -11 10 -5 0
-7 -4 -4 -10z"/>
<path d="M2283 1230 c-33 -28 -64 -58 -67 -67 -4 -8 25 13 64 47 62 55 76 70
67 70 -1 0 -30 -23 -64 -50z"/>
<path d="M2450 1265 c0 -2 9 -9 19 -14 14 -8 22 -7 32 7 13 15 12 16 -3 4 -11
-9 -18 -10 -23 -2 -6 10 -25 14 -25 5z"/>
<path d="M1970 1190 c-41 -38 -72 -72 -69 -74 3 -3 38 26 78 65 40 39 71 73
69 75 -2 2 -37 -28 -78 -66z"/>
<path d="M1650 1225 c-8 -9 -8 -15 -2 -15 12 0 26 19 19 26 -2 2 -10 -2 -17
-11z"/>
<path d="M1783 1198 c-17 -24 -44 -59 -60 -78 -15 -19 9 -2 54 39 46 41 81 77
78 79 -2 3 -11 0 -19 -7 -10 -8 -15 -9 -18 -1 -2 6 -18 -8 -35 -32z m32 3 c-3
-6 -11 -11 -17 -11 -6 0 -6 6 2 15 14 17 26 13 15 -4z"/>
<path d="M1970 1232 c0 -4 -24 -28 -53 -52 -29 -25 -54 -49 -55 -55 -1 -5 -6
-10 -12 -10 -5 0 -10 -4 -9 -10 0 -5 -7 -12 -17 -15 -10 -4 -13 -9 -8 -12 5
-4 47 32 93 78 45 46 78 84 72 84 -6 0 -11 -4 -11 -8z"/>
<path d="M1582 1205 c-17 -37 -14 -45 4 -12 9 16 14 31 11 33 -2 2 -9 -7 -15
-21z"/>
<path d="M2164 1193 c-15 -21 -41 -52 -57 -70 -16 -17 -26 -36 -23 -41 3 -6 1
-14 -5 -18 -8 -4 -9 -3 -5 4 4 7 5 12 2 12 -6 0 -11 -5 -86 -85 -43 -47 -43
-47 -7 -16 21 17 49 44 63 59 21 24 23 25 24 8 0 -20 0 -20 15 0 8 10 15 27
15 37 0 10 21 41 47 68 26 27 48 56 49 64 3 23 -2 18 -32 -22z"/>
<path d="M2494 1209 c-19 -22 -19 -22 4 -8 12 8 22 17 22 21 0 12 -6 9 -26
-13z"/>
<path d="M1977 1132 c-43 -35 -75 -67 -72 -70 3 -3 15 4 28 16 13 12 28 22 33
22 12 0 100 88 93 93 -2 3 -39 -25 -82 -61z"/>
<path d="M2085 1180 c-3 -5 -1 -10 4 -10 6 0 11 5 11 10 0 6 -2 10 -4 10 -3 0
-8 -4 -11 -10z"/>
<path d="M1620 1137 l-25 -32 27 20 c15 11 29 26 32 33 10 22 -9 11 -34 -21z"/>
<path d="M2290 1159 c0 -5 5 -7 10 -4 6 3 10 8 10 11 0 2 -4 4 -10 4 -5 0 -10
-5 -10 -11z"/>
<path d="M2445 1160 c-3 -5 1 -10 9 -10 9 0 16 5 16 10 0 6 -4 10 -9 10 -6 0
-13 -4 -16 -10z"/>
<path d="M1561 1153 c-1 -6 -4 -20 -7 -30 -5 -17 -5 -17 6 0 6 10 9 23 6 30
-3 9 -5 9 -5 0z"/>
<path d="M2361 1127 l-25 -32 25 23 c14 12 35 22 47 22 12 0 22 5 22 10 0 23
-46 7 -69 -23z"/>
<path d="M2485 1133 c-28 -17 -33 -22 -15 -18 14 4 34 16 45 26 25 24 19 23
-30 -8z"/>
<path d="M1764 1068 l-29 -33 33 29 c30 28 37 36 29 36 -2 0 -16 -15 -33 -32z"/>
<path d="M2214 1078 l-19 -23 23 19 c12 11 22 21 22 23 0 8 -8 2 -26 -19z"/>
<path d="M1595 1080 c3 -5 8 -10 11 -10 2 0 4 5 4 10 0 6 -5 10 -11 10 -5 0
-7 -4 -4 -10z"/>
<path d="M2149 1062 c-9 -9 -24 -22 -35 -29 -17 -10 -15 -12 16 -11 19 0 27 2
18 5 -15 4 -14 8 10 28 15 14 23 24 17 24 -5 0 -17 -8 -26 -17z"/>
<path d="M1542 1050 c0 -14 2 -19 5 -12 2 6 2 18 0 25 -3 6 -5 1 -5 -13z"/>
<path d="M2215 1044 l-50 -13 44 5 c24 2 51 9 60 14 21 12 6 11 -54 -6z"/>
<path d="M1524 974 c-5 -33 0 -67 16 -127 23 -81 46 -137 56 -137 2 0 0 9 -6
20 -6 11 -22 59 -36 107 -19 66 -24 100 -19 136 7 60 -2 62 -11 1z"/>
<path d="M1609 994 c-21 -24 -22 -26 -3 -16 25 13 50 42 37 42 -5 0 -20 -12
-34 -26z"/>
<path d="M1747 942 c-48 -42 -97 -90 -109 -107 -13 -16 28 17 90 74 99 93 119
112 110 111 -2 -1 -42 -36 -91 -78z"/>
<path d="M2060 994 c-11 -13 -8 -27 21 -85 18 -39 37 -73 41 -75 4 -3 -8 27
-27 67 -26 55 -32 76 -24 90 12 23 6 25 -11 3z"/>
<path d="M1659 943 l-24 -28 28 24 c15 14 27 26 27 28 0 8 -8 1 -31 -24z"/>
<path d="M1605 940 c-3 -5 -1 -10 4 -10 6 0 11 5 11 10 0 6 -2 10 -4 10 -3 0
-8 -4 -11 -10z"/>
<path d="M1966 935 c-11 -8 -15 -15 -9 -15 6 0 16 7 23 15 16 19 11 19 -14 0z"/>
<path d="M1990 904 c-7 -8 -18 -14 -24 -14 -12 -1 -66 -45 -66 -55 0 -3 22 10
48 29 27 19 57 36 68 38 17 3 17 4 2 10 -9 4 -22 1 -28 -8z"/>
<path d="M1599 883 c-13 -16 -12 -17 4 -4 16 13 21 21 13 21 -2 0 -10 -8 -17
-17z"/>
<path d="M2069 843 c-13 -16 -12 -17 4 -4 16 13 21 21 13 21 -2 0 -10 -8 -17
-17z"/>
<path d="M1686 834 c-5 -14 -4 -15 9 -4 17 14 19 20 6 20 -5 0 -12 -7 -15 -16z"/>
<path d="M1746 834 c-5 -14 -4 -15 9 -4 17 14 19 20 6 20 -5 0 -12 -7 -15 -16z"/>
<path d="M1823 830 c-34 -20 -47 -38 -15 -21 23 13 58 40 52 41 -3 0 -20 -9
-37 -20z"/>
<path d="M2006 839 c3 -5 1 -9 -4 -9 -5 0 -14 -12 -21 -27 -11 -28 -11 -28 6
-7 10 11 27 25 37 31 17 10 17 10 -3 16 -12 3 -19 1 -15 -4z"/>
<path d="M2072 790 c-18 -22 -29 -40 -23 -40 11 0 61 58 61 71 0 14 -2 12 -38
-31z"/>
<path d="M2130 811 c0 -6 4 -13 10 -16 6 -3 7 1 4 9 -7 18 -14 21 -14 7z"/>
<path d="M1882 757 c-22 -29 -55 -66 -73 -83 -19 -16 -41 -38 -49 -49 -14 -17
-14 -18 9 -4 14 8 36 27 50 43 13 15 29 33 35 40 18 19 76 106 71 106 -2 0
-22 -24 -43 -53z"/>
<path d="M1655 779 c-5 -8 -4 -10 3 -5 16 10 15 -6 0 -24 -7 -8 -4 -7 7 2 14
13 16 21 8 29 -8 8 -13 7 -18 -2z"/>
<path d="M2090 755 c-7 -9 -11 -18 -8 -20 3 -3 11 1 18 10 7 9 11 18 8 20 -3
3 -11 -1 -18 -10z"/>
<path d="M1691 736 c-23 -25 -23 -25 -2 -19 12 3 19 8 16 11 -2 3 0 11 6 19
19 23 4 14 -20 -11z"/>
<path d="M2143 713 c-62 -63 -96 -103 -88 -103 11 0 127 121 121 127 -2 3 -17
-8 -33 -24z"/>
<path d="M1743 718 c-7 -12 -17 -57 -10 -47 21 28 35 59 28 59 -5 0 -13 -6
-18 -12z"/>
<path d="M1984 623 c-32 -37 -53 -64 -46 -60 8 6 12 2 13 -10 0 -14 3 -12 12
7 6 14 14 27 17 30 9 8 70 100 67 100 -2 0 -30 -30 -63 -67z"/>
<path d="M1849 653 c-34 -38 -53 -63 -46 -63 2 0 21 20 41 45 41 50 44 61 5
18z"/>
<path d="M2130 640 c-13 -8 -12 -10 3 -10 9 0 17 5 17 10 0 12 -1 12 -20 0z"/>
<path d="M1892 630 c-45 -10 -52 -20 -15 -20 17 0 36 7 43 15 7 8 11 15 9 14
-2 -1 -19 -5 -37 -9z"/>
<path d="M2089 604 c-7 -9 -23 -20 -35 -25 -13 -4 -28 -18 -35 -30 -10 -20 -6
-18 28 9 40 31 70 62 60 62 -2 0 -11 -7 -18 -16z"/>
<path d="M2162 578 c-7 -7 -12 -9 -12 -5 0 4 -9 3 -20 -3 -11 -6 -20 -15 -20
-21 0 -11 55 15 65 31 8 14 2 13 -13 -2z"/>
<path d="M2049 494 c-24 -26 -24 -27 -1 -15 12 7 27 9 32 6 12 -7 13 5 2 23
-6 9 -15 5 -33 -14z"/>
<path d="M2122 490 c-18 -17 -27 -30 -20 -29 7 0 23 13 36 30 29 37 26 36 -16
-1z"/>
<path d="M1850 506 c0 -3 9 -10 20 -16 11 -6 20 -8 20 -6 0 3 -9 10 -20 16
-11 6 -20 8 -20 6z"/>
<path d="M2151 468 c-13 -22 -13 -23 6 -5 11 9 23 14 28 10 4 -5 5 -2 1 5 -10
18 -19 15 -35 -10z"/>
<path d="M1927 469 c7 -7 15 -10 18 -7 3 3 -2 9 -12 12 -14 6 -15 5 -6 -5z"/>
<path d="M1970 450 c8 -5 20 -10 25 -10 6 0 3 5 -5 10 -8 5 -19 10 -25 10 -5
0 -3 -5 5 -10z"/>
<path d="M2225 434 c-40 -14 -40 -14 -5 -9 19 3 39 10 44 15 12 12 11 12 -39
-6z"/>
<path d="M2018 433 c7 -3 16 -2 19 1 4 3 -2 6 -13 5 -11 0 -14 -3 -6 -6z"/>
<path d="M2050 430 c0 -13 112 -22 124 -10 8 8 6 9 -5 5 -9 -3 -40 -2 -68 3
-28 5 -51 6 -51 2z"/>
<path d="M2487 1029 c-90 -21 -188 -100 -207 -169 -16 -55 -11 -141 9 -185 30
-66 124 -135 185 -135 16 0 27 -14 48 -58 14 -31 31 -75 37 -97 17 -62 73
-156 113 -188 31 -25 38 -27 57 -16 52 33 52 110 1 293 l-31 109 24 26 c91 96
90 221 -1 322 -70 78 -158 115 -235 98z m6 -48 c-13 -11 -23 -22 -23 -25 0
-14 28 -5 45 14 14 16 26 19 49 14 59 -12 114 -52 142 -104 15 -28 31 -50 36
-50 4 0 8 -19 8 -42 1 -54 -45 -150 -79 -166 -33 -16 -37 -8 -7 12 14 9 31 26
37 38 10 20 7 19 -22 -7 -19 -16 -41 -37 -49 -47 -24 -27 -87 -39 -139 -27
-25 6 -56 11 -68 11 -23 1 -55 38 -60 72 -4 25 -22 46 -39 46 -10 0 -13 15
-12 55 1 29 5 52 10 49 4 -3 8 2 8 11 0 9 -5 13 -11 9 -6 -3 -3 6 7 20 13 21
19 24 26 14 6 -10 25 5 73 55 35 37 70 67 77 67 8 -1 4 -8 -9 -19z m-88 -41
c-21 -22 -41 -37 -44 -34 -6 6 66 74 78 74 3 0 -12 -18 -34 -40z"/>
</g>
</svg>
